# xmcd
#
# Track frame offsets:
#	150
#	18572
#	34815
#	51355
#
# Disc length: 958 seconds
#
# Revision: 0
# Processed by: cddbd v1.5.2PL0 Copyright (c) Steve Scherf et al.
# Submitted via: audiograbber 1.83.01
#
DISCID=2f03bc04
DTITLE=Wind - Island of love (Zeit für Zärtlichkeit)
DYEAR=1900
DGENRE=
TTITLE0=Island of love (Zeit für Zärtlichkeit) (Original Cut)
TTITLE1=Island of love (Zeit für Zärtlichkeit) (Short Cut)
TTITLE2=Sterne des Südens
TTITLE3=Tanz im Wind (Medley)
EXTD=
EXTT0=
EXTT1=
EXTT2=
EXTT3=
PLAYORDER=
